<?xml version="1.0" encoding="utf-8"?>

<!-- Generator: Adobe Illustrator 18.1.1, SVG Export Plug-In . SVG Version: 6.00 Build 0)  -->

<svg version="1.1" id="Layer_1" xmlns="http://www.w3.org/2000/svg" xmlns:xlink="http://www.w3.org/1999/xlink" x="0px" y="0px"

	 viewBox="0 41 612 544" enable-background="new 0 41 612 544" xml:space="preserve">

<path fill="#0f182e" d="M598.5,284.3h-60.4C523.3,150.2,409.6,45.5,271.2,45.5c-125,0-229.7,85.7-259.9,200.9c0,0,0,0,0.7,0.7

	c-7.7,28.8-10.5,58.3-7.7,89.2c4.9,61.1,30.2,115.9,68.8,158c0,0,0,0,0,0.7c49.2,54.1,120.1,87.8,198.8,87.8

	c94.1,0,158.7-49.2,189.6-85l-68.8-78c-28.8,27.4-64.6,54.1-120.1,54.1c-87.8,0-159.4-71.6-159.4-159.4s71.6-159.4,159.4-159.4

	c78,0,142.6,55.5,156.6,129.9h-65.3c-11.2,0-14.7,7-8.4,16.2l113.8,154.5c6.3,9.1,16.9,9.1,23.9,0l113.8-154.5

	C613.2,291.3,609.7,284.3,598.5,284.3z"/>

</svg>

