<?xml version="1.0" encoding="utf-8"?>
<!-- Generator: Adobe Illustrator 21.0.0, SVG Export Plug-In . SVG Version: 6.00 Build 0)  -->
<svg version="1.1" id="Layer_1" xmlns="http://www.w3.org/2000/svg" xmlns:xlink="http://www.w3.org/1999/xlink" x="0px" y="0px"
	 viewBox="0 0 363.7 65.6" style="enable-background:new 0 0 363.7 65.6;" xml:space="preserve">
<style type="text/css">
	.st0{fill:#FFFFFF;}
	.st1{fill:#44AEE3;}
</style>
<g>
	<path class="st0" d="M176.1,38.1c-4.3,0-7.2-3.5-7.2-8.2v-0.1c0-4.4,3-8.1,7.1-8.1c3,0,4.9,1.5,6.7,3.8l8.5-6.4
		c-3.1-4.8-8-8-15.4-8c-11.4,0-19.2,8.6-19.2,18.8V30c0,10.2,7.9,18.7,18.8,18.7c7.9,0,12.7-3.3,16-8.3l-8.5-6.1
		C181,36.7,179.1,38.1,176.1,38.1z"/>
	<path class="st0" d="M204.9,2.7h-12.6v34c0,8.6,4.5,11.9,12.1,11.9c3.5,0,6.5-0.9,8.8-2.1v-9.9c-1.5,0.7-3.1,1.2-4.8,1.2
		c-2.3,0-3.5-1.1-3.5-3.6V22h8.4V11.8h-8.4V2.7z"/>
	<rect x="215" y="11.8" class="st0" width="12.6" height="36"/>
	<rect x="215" y="2.7" class="st0" width="12.6" height="5.8"/>
	<path class="st0" d="M319,2.7h-12.6v34c0,8.6,4.5,11.9,12.1,11.9c3.5,0,6.5-0.9,8.8-2.1v-9.9c-1.5,0.7-3.1,1.2-4.8,1.2
		c-2.3,0-3.5-1.1-3.5-3.6V22h8.4V11.8H319V2.7z"/>
	<path class="st0" d="M363.7,30.7c0-10.6-5.7-19.7-18.1-19.7c-10.7,0-18.2,8.3-18.2,18.8V30c0,11.1,8,18.7,19.3,18.7
		c7.1,0,12.1-2.9,15.6-7.3l-7-5.8c-2.6,2.5-4.9,3.7-8,3.7c-3.9,0-6.8-2-7.8-5.9h24.1C363.7,32.5,363.7,31.5,363.7,30.7z M339.3,26.9
		c0.7-4,2.9-6.5,6.3-6.5c3.5,0,5.9,2.5,6.3,6.5H339.3z"/>
	<polygon class="st0" points="255.7,11.8 248.8,32.9 241.8,11.8 228.5,11.8 242.9,48.1 254.4,48.1 268.8,11.8 	"/>
	<path class="st0" d="M292.1,16.2c-2.3-2.7-5.5-5.2-11-5.2c-8.5,0-15.9,7.1-15.9,18.8V30c0,11.5,7.4,18.6,16,18.6
		c5.4,0,8.4-2.6,10.9-5.6v4.8h12.6v-36h-12.6V16.2z M292.3,29.9c0,4.8-3.3,8.2-7.4,8.2c-4.1,0-7.4-3.4-7.4-8.2v-0.1
		c0-4.8,3.3-8.2,7.4-8.2c4.1,0,7.4,3.5,7.4,8.2V29.9z"/>
	<path class="st0" d="M141.2,0.9h-12.5l-7.5,17.9h1.9c1.6,0,3,0.8,3.6,2.1c0.7,1.3,0.5,2.9-0.5,4.2L116,39.1
		c-0.9,1.2-2.1,1.8-3.5,1.8c-0.2,0-0.4,0-0.5,0l-2.9,6.9h13.5l3.3-8.4h18l3.3,8.4h13.9L141.2,0.9z M129.6,29.4l5.3-13.2l5.2,13.2
		H129.6z"/>
	<g>
		<path class="st1" d="M123.2,21.8h-5.5C116.3,9.5,105.9,0,93.3,0C81,0,70.8,9,69.1,20.9c-2.7-2.1-6.3-3.3-10.1-3.3
			c-4.6,0-7.6,1.7-10,3.6c0.6-5.8,3.3-9.9,8.8-9.9c3.6,0,6.3,1.3,9.1,3.4c0.8-2.1,1.8-4.1,3.2-6c0.8-1.2,1.7-2.3,2.6-3.3
			c-4.3-3.1-8.7-4.8-15-4.8c-14.6,0-21.6,11-21.6,25.5v0.1c0,0.1,0,0.1,0,0.1c-2.1-3.3-5.9-5.2-10.1-6.1l11.1-9.5V1.5H3.2v10.4H21
			l-10.7,9.6l1.9,6.7h5.5c4.9,0,7.6,1.8,7.6,4.8v0.1c0,2.9-2.3,4.7-6,4.7c-4.3,0-7.8-1.9-11.1-5.3L0,40.7c4.5,5,10.8,8.2,19.8,8.2
			c9.1,0,16-4.6,17.6-12.1c1,2.9,2.4,5,4.2,6.8C44.9,47,49.2,49,55.8,49c7.9,0,14.7-3.8,17.3-10.5C77.6,44.9,84.9,49,93.3,49
			c8.6,0,14.5-4.5,17.3-7.8l-6.3-7.1c-2.6,2.5-5.9,4.9-11,4.9c-8,0-14.6-6.5-14.6-14.6c0-8,6.5-14.6,14.6-14.6
			c7.1,0,13,5.1,14.3,11.8h-5.8c-1,0-1.3,0.7-0.7,1.5l10.4,14.1c0.6,0.8,1.6,0.8,2.2,0l10.4-14.1C124.5,22.5,124.2,21.8,123.2,21.8z
			 M61.7,32.9c0,3.4-2.4,6-6.4,6c-4.1,0-6.6-2.7-6.6-6v-0.1c0-3.3,2.4-5.9,6.4-5.9c4.1,0,6.6,2.7,6.6,6V32.9z"/>
	</g>
</g>
<g>
	<path class="st1" d="M109.1,57h3.1c2.6,0,4.5,1.8,4.5,4.2v0c0,2.4-1.8,4.2-4.5,4.2h-3.1V57z M110.6,58.4v5.7h1.7
		c1.8,0,2.9-1.2,2.9-2.8v0c0-1.6-1.2-2.9-2.9-2.9H110.6z"/>
	<path class="st1" d="M120.5,57h1.5v8.4h-1.5V57z"/>
	<path class="st1" d="M125.8,61.2L125.8,61.2c0-2.4,1.8-4.4,4.3-4.4c1.5,0,2.4,0.4,3.2,1.1l-0.9,1.1c-0.6-0.6-1.3-0.9-2.4-0.9
		c-1.5,0-2.7,1.4-2.7,3v0c0,1.7,1.1,3,2.9,3c0.8,0,1.5-0.3,2-0.6V62H130v-1.3h3.6v3.5c-0.8,0.7-2,1.3-3.5,1.3
		C127.5,65.6,125.8,63.7,125.8,61.2z"/>
	<path class="st1" d="M137.6,57h1.5v8.4h-1.5V57z"/>
	<path class="st1" d="M145.3,58.4h-2.7V57h6.8v1.4h-2.7v7h-1.5V58.4z"/>
	<path class="st1" d="M154.8,57h1.4l3.7,8.5h-1.6l-0.9-2h-4l-0.9,2h-1.5L154.8,57z M156.9,62.1l-1.5-3.4l-1.4,3.4H156.9z"/>
	<path class="st1" d="M163.2,57h1.5v7.1h4.4v1.3h-5.9V57z"/>
	<path class="st1" d="M178.1,57h1.6l2.6,4l2.6-4h1.6v8.4h-1.5v-6l-2.7,4h0l-2.6-3.9v6h-1.5V57z"/>
	<path class="st1" d="M193.5,57h1.4l3.7,8.5H197l-0.9-2h-4l-0.9,2h-1.5L193.5,57z M195.6,62.1l-1.5-3.4l-1.4,3.4H195.6z"/>
	<path class="st1" d="M201.9,57h3.7c1.1,0,1.9,0.3,2.4,0.8c0.4,0.5,0.7,1.1,0.7,1.8v0c0,1.4-0.8,2.2-2,2.5l2.3,3.2h-1.8l-2.1-2.9
		h-1.8v2.9h-1.5V57z M205.5,61.2c1.1,0,1.7-0.6,1.7-1.4v0c0-0.9-0.6-1.4-1.7-1.4h-2.1v2.8H205.5z"/>
	<path class="st1" d="M212.5,57h1.5v4.2l4-4.2h1.8l-3.5,3.6l3.7,4.8h-1.8l-2.9-3.8L214,63v2.4h-1.5V57z"/>
	<path class="st1" d="M223.2,57h6.2v1.3h-4.7v2.2h4.2v1.3h-4.2v2.3h4.8v1.3h-6.3V57z"/>
	<path class="st1" d="M235.2,58.4h-2.7V57h6.8v1.4h-2.7v7h-1.5V58.4z"/>
	<path class="st1" d="M242.9,57h1.5v8.4h-1.5V57z"/>
	<path class="st1" d="M248.6,57h1.4l4.5,5.8V57h1.5v8.4h-1.2l-4.6-6v6h-1.5V57z"/>
	<path class="st1" d="M259.6,61.2L259.6,61.2c0-2.4,1.8-4.4,4.3-4.4c1.5,0,2.4,0.4,3.2,1.1l-0.9,1.1c-0.6-0.6-1.3-0.9-2.4-0.9
		c-1.5,0-2.7,1.4-2.7,3v0c0,1.7,1.1,3,2.9,3c0.8,0,1.5-0.3,2-0.6V62h-2.1v-1.3h3.6v3.5c-0.8,0.7-2,1.3-3.5,1.3
		C261.3,65.6,259.6,63.7,259.6,61.2z"/>
	<path class="st1" d="M276.3,64.2l0.9-1.1c0.8,0.7,1.6,1.1,2.7,1.1c0.9,0,1.5-0.4,1.5-1.1v0c0-0.6-0.3-0.9-1.9-1.3
		c-1.8-0.4-2.8-1-2.8-2.5v0c0-1.4,1.2-2.4,2.9-2.4c1.2,0,2.2,0.4,3,1.1l-0.8,1.1c-0.8-0.6-1.5-0.9-2.3-0.9c-0.9,0-1.4,0.4-1.4,1v0
		c0,0.6,0.4,0.9,2,1.3c1.8,0.4,2.7,1.1,2.7,2.5v0c0,1.6-1.2,2.5-3,2.5C278.5,65.5,277.3,65.1,276.3,64.2z"/>
	<path class="st1" d="M286.1,61.2L286.1,61.2c0-2.4,1.8-4.4,4.4-4.4s4.4,2,4.4,4.3v0c0,2.4-1.8,4.3-4.4,4.3
		C287.9,65.6,286.1,63.6,286.1,61.2z M293.3,61.2L293.3,61.2c0-1.7-1.2-3-2.9-3c-1.7,0-2.8,1.3-2.8,3v0c0,1.6,1.2,3,2.9,3
		C292.2,64.2,293.3,62.9,293.3,61.2z"/>
	<path class="st1" d="M298.6,57h1.5v7.1h4.4v1.3h-5.9V57z"/>
	<path class="st1" d="M307.6,61.8V57h1.5v4.8c0,1.6,0.8,2.4,2.1,2.4c1.3,0,2.1-0.8,2.1-2.3V57h1.5v4.8c0,2.5-1.4,3.8-3.6,3.8
		C309,65.5,307.6,64.3,307.6,61.8z"/>
	<path class="st1" d="M320.8,58.4h-2.7V57h6.8v1.4h-2.7v7h-1.5V58.4z"/>
	<path class="st1" d="M328.5,57h1.5v8.4h-1.5V57z"/>
	<path class="st1" d="M333.8,61.2L333.8,61.2c0-2.4,1.8-4.4,4.4-4.4s4.4,2,4.4,4.3v0c0,2.4-1.8,4.3-4.4,4.3
		C335.6,65.6,333.8,63.6,333.8,61.2z M341,61.2L341,61.2c0-1.7-1.2-3-2.9-3c-1.7,0-2.8,1.3-2.8,3v0c0,1.6,1.2,3,2.9,3
		C339.9,64.2,341,62.9,341,61.2z"/>
	<path class="st1" d="M346.3,57h1.4l4.5,5.8V57h1.5v8.4h-1.2l-4.6-6v6h-1.5V57z"/>
	<path class="st1" d="M357.2,64.2l0.9-1.1c0.8,0.7,1.6,1.1,2.7,1.1c0.9,0,1.5-0.4,1.5-1.1v0c0-0.6-0.3-0.9-1.9-1.3
		c-1.8-0.4-2.8-1-2.8-2.5v0c0-1.4,1.2-2.4,2.9-2.4c1.2,0,2.2,0.4,3,1.1l-0.8,1.1c-0.8-0.6-1.5-0.9-2.3-0.9c-0.9,0-1.4,0.4-1.4,1v0
		c0,0.6,0.4,0.9,2,1.3c1.8,0.4,2.7,1.1,2.7,2.5v0c0,1.6-1.2,2.5-3,2.5C359.4,65.5,358.2,65.1,357.2,64.2z"/>
</g>
</svg>
