<svg id="Layer_1" data-name="Layer 1" xmlns="http://www.w3.org/2000/svg" viewBox="26.37 22.13 494 86.62">
  <defs>
    <style>
      .cls-1, .cls-2, .cls-3 {
        stroke-width: 0px;
      }

      .cls-4 {
        isolation: isolate;
      }

      .cls-2 {
        fill: #ff0092;
      }

      .cls-3 {
        fill: #00b3ef;
      }
    </style>
  </defs>
  <path class="cls-1" d="m265.48,73.85c-5.79,0-9.77-4.79-9.77-11.12v-.18c0-5.97,4.07-10.94,9.68-10.94,4.07,0,6.69,1.99,9.13,5.15l11.58-8.68c-4.16-6.51-10.85-10.85-20.89-10.85-15.47,0-26.14,11.67-26.14,25.51v.18c0,13.84,10.76,25.41,25.6,25.41,10.67,0,17.18-4.52,21.71-11.21l-11.49-8.32c-2.62,3.17-5.24,5.06-9.41,5.06"/>
  <path class="cls-1" d="m304.61,25.83h-17.09v46.13c0,11.67,6.06,16.19,16.37,16.19,4.79,0,8.86-1.18,11.94-2.89v-13.39c-2.08,1-4.25,1.63-6.51,1.63-3.17,0-4.7-1.45-4.7-4.89v-16.64h11.4v-13.75h-11.4v-12.39h0Z"/>
  <rect class="cls-1" x="318.45" y="38.22" width="17.09" height="48.93"/>
  <rect class="cls-1" x="318.44" y="25.87" width="17.1" height="7.92"/>
  <path class="cls-1" d="m459.57,25.83h-17.09v46.13c0,11.67,6.06,16.19,16.37,16.19,4.79,0,8.86-1.18,11.94-2.89v-13.39c-2.08,1-4.25,1.63-6.51,1.63-3.17,0-4.7-1.45-4.7-4.89v-16.64h11.4v-13.75h-11.4v-12.39h0Z"/>
  <path class="cls-1" d="m487.25,58.66c.9-5.42,3.98-8.86,8.5-8.86s7.96,3.44,8.59,8.86h-17.09Zm33.1,5.25c0-14.38-7.78-26.77-24.6-26.77-14.47,0-24.69,11.3-24.69,25.6v.18c0,15.1,10.85,25.41,26.23,25.41,9.68,0,16.46-3.98,21.16-9.95l-9.49-7.87c-3.53,3.44-6.69,4.97-10.85,4.97-5.34,0-9.23-2.71-10.58-8.05h32.74c.09-1.18.09-2.44.09-3.53"/>
  <polygon class="cls-1" points="373.71 38.22 364.23 66.77 354.83 38.22 336.76 38.22 356.28 87.46 371.9 87.46 391.42 38.22 373.71 38.22"/>
  <path class="cls-1" d="m423.41,62.7c0,6.5-4.43,11.11-10.03,11.11s-10.03-4.61-10.03-11.11v-.18c0-6.5,4.52-11.11,10.03-11.11s10.03,4.7,10.03,11.11v.18Zm-.36-18.52c-3.16-3.7-7.5-7.05-14.9-7.05-11.57,0-21.59,9.67-21.59,25.57v.18c0,15.63,10.03,25.3,21.68,25.3,7.32,0,11.47-3.52,14.82-7.59v6.5h17.16v-48.87h-17.16v5.96h-.01Z"/>
  <path class="cls-1" d="m202.45,62.1l7.14-17.91,7.06,17.91h-14.2Zm15.74-38.71h-16.91l-10.23,24.29h2.6c2.21,0,4.06,1.05,4.95,2.82s.64,3.88-.67,5.66l-14.07,19.12c-1.16,1.57-2.89,2.48-4.75,2.48-.24,0-.48-.02-.72-.05l-3.97,9.44h18.36l4.52-11.4h24.51l4.52,11.4h18.81l-26.95-63.76h0Z"/>
  <path class="cls-3" d="m110.18,66.9c0,4.6-3.25,8.12-8.76,8.12s-8.94-3.61-8.94-8.21v-.18c0-4.52,3.25-8.03,8.76-8.03s8.94,3.61,8.94,8.12c0,0,0,.18,0,.18Zm83.46-15.14h-7.45c-1.84-16.65-15.96-29.61-33.1-29.61s-30.53,12.29-32.94,28.32c-3.73-2.9-8.6-4.42-13.77-4.42-6.23,0-10.29,2.35-13.63,4.88.81-7.95,4.51-13.45,11.92-13.45,4.95,0,8.51,1.82,12.31,4.61,1.06-2.85,2.48-5.58,4.29-8.2,1.1-1.59,2.3-3.06,3.58-4.43-5.86-4.24-11.88-6.52-20.44-6.52-19.77,0-29.34,14.98-29.34,34.67v.38c-2.9-4.5-7.98-7.05-13.77-8.33l15.08-12.91v-12.55H30.7v14.17h24.19l-14.53,13.09,2.53,9.11h7.4c6.59,0,10.29,2.44,10.29,6.5v.18c0,3.88-3.16,6.41-8.13,6.41-5.78,0-10.56-2.62-15.07-7.22l-11.01,11.01c6.14,6.77,14.72,11.19,26.9,11.19s21.74-6.29,23.9-16.44c1.35,3.88,3.3,6.86,5.67,9.22,4.51,4.51,10.38,7.22,19.32,7.22,10.78,0,20.02-5.22,23.56-14.25,6.01,8.67,16.03,14.36,27.39,14.36s19.7-6.12,23.48-10.56l-8.55-9.67c-3.56,3.43-8,6.69-14.92,6.69-10.92,0-19.77-8.85-19.77-19.77s8.85-19.77,19.77-19.77c9.65,0,17.69,6.92,19.42,16.07h-7.93c-1.36,0-1.81.89-1.01,1.99l14.07,19.12c.81,1.09,2.12,1.09,2.93,0l14.08-19.12c.81-1.09.35-1.99-1.01-1.99"/>
  <g class="cls-4">
    <g class="cls-4">
      <path class="cls-3" d="m175.46,99.44h3.42c2.76,0,4.66,1.97,4.66,4.54v.03c0,2.57-1.9,4.57-4.66,4.57h-3.42v-9.13Zm1.93,1.81v5.5h1.49c1.57,0,2.64-1.11,2.64-2.73v-.03c0-1.62-1.08-2.75-2.64-2.75h-1.49Z"/>
      <path class="cls-3" d="m196.12,99.44h1.93v9.13h-1.93v-9.13Z"/>
      <path class="cls-3" d="m210.63,104.03v-.03c0-2.6,1.94-4.72,4.6-4.72,1.57,0,2.54.44,3.44,1.25l-1.22,1.53c-.66-.59-1.29-.93-2.29-.93-1.4,0-2.52,1.29-2.52,2.84v.03c0,1.67,1.1,2.9,2.66,2.9.71,0,1.33-.18,1.82-.55v-1.3h-1.94v-1.73h3.81v3.97c-.9.8-2.14,1.45-3.75,1.45-2.73,0-4.61-1.98-4.61-4.7Z"/>
      <path class="cls-3" d="m231.7,99.44h1.93v9.13h-1.93v-9.13Z"/>
    </g>
    <g class="cls-4">
      <path class="cls-3" d="m248.66,101.3h-2.67v-1.85h7.27v1.85h-2.67v7.28h-1.93v-7.28Z"/>
    </g>
    <g class="cls-4">
      <path class="cls-3" d="m267.39,99.38h1.78l3.76,9.2h-2.02l-.8-2.05h-3.71l-.8,2.05h-1.97l3.76-9.2Zm2.03,5.38l-1.17-2.96-1.17,2.96h2.33Z"/>
      <path class="cls-3" d="m285.06,99.44h1.93v7.31h4.37v1.83h-6.3v-9.13Z"/>
      <path class="cls-3" d="m318.12,99.44h6.61v1.79h-4.7v1.85h4.13v1.79h-4.13v1.92h4.76v1.79h-6.68v-9.13Z"/>
      <path class="cls-3" d="m344.89,99.44l-2.93,4.46,3.06,4.67h-2.25l-1.97-3.13-1.98,3.13h-2.19l3.06-4.64-2.93-4.49h2.25l1.83,2.96,1.87-2.96h2.19Z"/>
      <path class="cls-3" d="m357.23,99.44h3.58c2.09,0,3.36,1.28,3.36,3.16v.03c0,2.13-1.58,3.21-3.55,3.21h-1.47v2.74h-1.93v-9.13Zm3.46,4.61c.96,0,1.53-.6,1.53-1.38v-.03c0-.9-.6-1.38-1.57-1.38h-1.49v2.79h1.53Z"/>
      <path class="cls-3" d="m376.37,99.44h6.61v1.79h-4.7v1.85h4.13v1.79h-4.13v1.92h4.76v1.79h-6.68v-9.13Z"/>
      <path class="cls-3" d="m395.54,99.44h4.01c1.11,0,1.97.31,2.56.93.5.52.75,1.21.75,2.09v.03c0,1.47-.76,2.4-1.88,2.83l2.14,3.26h-2.25l-1.88-2.92h-1.52v2.92h-1.93v-9.13Zm3.88,4.44c.95,0,1.48-.51,1.48-1.29v-.03c0-.87-.56-1.3-1.52-1.3h-1.92v2.62h1.95Z"/>
      <path class="cls-3" d="m415.46,99.44h1.93v9.13h-1.93v-9.13Z"/>
      <path class="cls-3" d="m430.36,99.44h6.61v1.79h-4.7v1.85h4.13v1.79h-4.13v1.92h4.76v1.79h-6.68v-9.13Z"/>
      <path class="cls-3" d="m449.52,99.44h1.78l4.11,5.62v-5.62h1.9v9.13h-1.64l-4.25-5.81v5.81h-1.9v-9.13Z"/>
      <path class="cls-3" d="m469.81,104.03v-.03c0-2.6,1.88-4.72,4.57-4.72,1.64,0,2.66.57,3.46,1.41l-1.23,1.47c-.69-.64-1.35-1.03-2.24-1.03-1.48,0-2.54,1.28-2.54,2.84v.03c0,1.57,1.04,2.87,2.54,2.87,1,0,1.62-.41,2.31-1.07l1.23,1.29c-.9,1-1.89,1.63-3.6,1.63-2.58,0-4.5-2.07-4.5-4.7Z"/>
      <path class="cls-3" d="m490.22,99.44h6.61v1.79h-4.7v1.85h4.13v1.79h-4.13v1.92h4.76v1.79h-6.68v-9.13Z"/>
      <path class="cls-3" d="m508.78,107.24l1.14-1.42c.8.68,1.62,1.11,2.62,1.11.8,0,1.27-.33,1.27-.86v-.03c0-.51-.3-.78-1.77-1.16-1.78-.46-2.91-.99-2.91-2.79v-.03c0-1.66,1.27-2.75,3.07-2.75,1.29,0,2.36.42,3.26,1.16l-1,1.51c-.79-.56-1.53-.9-2.28-.9s-1.13.34-1.13.8v.03c0,.61.38.78,1.89,1.2,1.78.5,2.78,1.15,2.78,2.74v.03c0,1.81-1.33,2.83-3.22,2.83-1.34,0-2.67-.47-3.72-1.46Z"/>
    </g>
  </g>
  <rect class="cls-2" x="470.98" y="49.15" width="1.67" height="1.31"/>
</svg>