<?xml version="1.0" encoding="utf-8"?>
<!-- Generator: Adobe Illustrator 21.0.0, SVG Export Plug-In . SVG Version: 6.00 Build 0)  -->
<svg version="1.1" id="Layer_1" xmlns="http://www.w3.org/2000/svg" xmlns:xlink="http://www.w3.org/1999/xlink" x="0px" y="0px"
	 viewBox="0 0 466.6 108" style="enable-background:new 0 0 466.6 108;" xml:space="preserve">
<style type="text/css">
	.st0{fill:#F8B019;}
</style>
<g>
	<g>
		<path d="M244.2,48.7v-0.2c0-16.3,13.3-29.9,31.7-29.9c18.3,0,31.5,13.4,31.5,29.7v0.2c0,16.3-13.3,29.9-31.7,29.9
			C257.4,78.4,244.2,64.9,244.2,48.7z M287.8,48.7v-0.2c0-7-5.1-12.9-12.1-12.9c-7.3,0-11.9,5.8-11.9,12.7v0.2
			c0,7,5.1,12.9,12.1,12.9C283.2,61.4,287.8,55.5,287.8,48.7z"/>
		<path d="M309.2,57.4V20h20.1v30.9c0,6.2,3.3,9.6,8.1,9.6c4.8,0,8.3-3.4,8.3-9.6V20h20.1v57.1h-20.1v-7.8c-3.7,4.8-9,9.1-17.1,9.1
			C316.5,78.4,309.2,70.3,309.2,57.4z"/>
		<path d="M374.7,59.4V36.1h-6.8V20h6.8V5.5h20.1V20H408v16.2h-13.3v19.3c0,4,1.8,5.7,5.5,5.7c2.6,0,5.2-0.7,7.6-1.9V75
			c-3.6,2-8.3,3.3-13.9,3.3C381.8,78.3,374.7,73,374.7,59.4z"/>
		<path d="M410,0h20.1v27.8c3.7-4.8,9-9.1,17.1-9.1c12.1,0,19.4,8,19.4,21v37.4h-20.1V46.2c0-6.2-3.3-9.6-8-9.6
			c-4.9,0-8.4,3.4-8.4,9.6v30.9H410V0z"/>
	</g>
	<path d="M215.7,31.1c-10.2-2.3-12.8-3.8-12.8-7.2v-0.2c0-2.6,2.4-4.8,7.4-4.8c6.5,0,13.9,2.5,20.7,7.3l10.2-14.5
		c-8-6.4-17.9-9.8-30.4-9.8c-15.3,0-25.5,7.4-28,18.2c1.9,3.6,3.4,7.6,4.2,11.8h5.1c2.3,0,4.2,1.1,5.1,2.9c0.9,1.8,0.6,4-0.7,5.8
		l-2.5,3.4c4.5,2.2,10,3.7,16,5.1c10,2.3,12.5,4,12.5,7.1v0.2c0,3.2-3,5.1-8.4,5.1c-8.6,0-16.7-3.1-24-8.9l-11.4,13.6
		c9.1,8.1,21.5,12.3,34.6,12.3c18,0,29.9-9,29.9-24.1v-0.2C243.2,40.2,232.7,34.7,215.7,31.1z"/>
	<g>
		<g>
			<path class="st0" d="M192.1,35.9h-8.6c-2.1-19.1-18.3-34-38-34c-19.2,0-35.1,14.1-37.8,32.5c-4.3-3.3-9.9-5.1-15.8-5.1
				c-7.2,0-11.8,2.7-15.7,5.6c0.9-9.1,5.2-15.4,13.7-15.4c5.7,0,9.8,2.1,14.1,5.3c1.2-3.3,2.9-6.4,4.9-9.4c1.3-1.8,2.6-3.5,4.1-5.1
				c-6.7-4.9-13.7-7.5-23.5-7.5C66.9,2.8,55.9,20,55.9,42.6v0.2c0,0.1,0,0.2,0,0.2c-3.3-5.2-9.2-8.1-15.8-9.6l17.3-14.8V4.2H5v16.3
				h27.8l-16.7,15L19,46h8.5c7.6,0,11.8,2.8,11.8,7.5v0.2c0,4.5-3.6,7.4-9.3,7.4c-6.6,0-12.1-3-17.3-8.3L0,65.4
				c7.1,7.8,16.9,12.9,30.9,12.9c14.2,0,25-7.2,27.5-18.9c1.6,4.5,3.8,7.9,6.5,10.6c5.2,5.2,11.9,8.3,22.2,8.3
				c12.4,0,23-6,27.1-16.4c6.9,10,18.4,16.5,31.5,16.5c13.4,0,22.6-7,27-12.1l-9.8-11.1c-4.1,3.9-9.2,7.7-17.1,7.7
				c-12.5,0-22.7-10.2-22.7-22.7c0-12.5,10.2-22.7,22.7-22.7c11.1,0,20.3,7.9,22.3,18.5h-9.1c-1.6,0-2.1,1-1.2,2.3l16.2,22
				c0.9,1.3,2.4,1.3,3.4,0l16.2-22C194.2,36.9,193.7,35.9,192.1,35.9z M96.3,53.3c0,5.3-3.7,9.3-10.1,9.3c-6.3,0-10.3-4.1-10.3-9.4
				V53c0-5.2,3.7-9.2,10.1-9.2c6.3,0,10.3,4.1,10.3,9.3V53.3z"/>
		</g>
	</g>
	<g>
		<path class="st0" d="M182,92.5h5.7c4.8,0,8.1,3.3,8.1,7.6v0c0,4.3-3.3,7.6-8.1,7.6H182V92.5z M184.7,94.9v10.4h3
			c3.2,0,5.3-2.2,5.3-5.1v0c0-3-2.1-5.2-5.3-5.2H184.7z"/>
		<path class="st0" d="M206.3,92.5h2.7v15.2h-2.7V92.5z"/>
		<path class="st0" d="M219.6,100.2L219.6,100.2c0-4.3,3.3-7.9,7.9-7.9c2.7,0,4.3,0.7,5.9,2.1l-1.7,2c-1.2-1-2.3-1.6-4.3-1.6
			c-2.8,0-4.9,2.5-4.9,5.4v0c0,3.1,2.1,5.4,5.2,5.4c1.4,0,2.7-0.5,3.7-1.2v-2.9h-3.9v-2.3h6.5v6.4c-1.5,1.3-3.7,2.4-6.4,2.4
			C222.7,108,219.6,104.6,219.6,100.2z"/>
		<path class="st0" d="M244.6,92.5h2.7v15.2h-2.7V92.5z"/>
		<path class="st0" d="M262.3,95h-4.8v-2.5h12.4V95H265v12.8h-2.7V95z"/>
		<path class="st0" d="M283.2,92.4h2.5l6.7,15.3h-2.8L288,104h-7.2l-1.6,3.7h-2.7L283.2,92.4z M287.1,101.7l-2.6-6.1l-2.6,6.1H287.1
			z"/>
		<path class="st0" d="M302.2,92.5h2.7v12.8h8v2.4h-10.7V92.5z"/>
		<path class="st0" d="M341.9,92.4h2.5l6.7,15.3h-2.8l-1.5-3.7h-7.2l-1.6,3.7h-2.7L341.9,92.4z M345.7,101.7l-2.6-6.1l-2.6,6.1
			H345.7z"/>
		<path class="st0" d="M359.2,100.2L359.2,100.2c0-4.3,3.3-7.9,7.9-7.9c2.7,0,4.3,0.7,5.9,2.1l-1.7,2c-1.2-1-2.3-1.6-4.3-1.6
			c-2.8,0-4.9,2.5-4.9,5.4v0c0,3.1,2.1,5.4,5.2,5.4c1.4,0,2.7-0.5,3.7-1.2v-2.9H367v-2.3h6.5v6.4c-1.5,1.3-3.7,2.4-6.4,2.4
			C362.3,108,359.2,104.6,359.2,100.2z"/>
		<path class="st0" d="M384.1,92.5h11.3v2.4h-8.6v4h7.6v2.4h-7.6v4.1h8.7v2.4h-11.4V92.5z"/>
		<path class="st0" d="M405.8,92.5h2.5l8.2,10.5V92.5h2.6v15.2h-2.2l-8.4-10.8v10.8h-2.6V92.5z"/>
		<path class="st0" d="M429.5,100.2L429.5,100.2c0-4.4,3.2-7.9,7.9-7.9c2.8,0,4.5,1,6,2.4l-1.7,2c-1.2-1.1-2.5-1.9-4.3-1.9
			c-2.9,0-5,2.4-5,5.4v0c0,3,2.1,5.4,5,5.4c1.9,0,3.1-0.7,4.4-2l1.7,1.7c-1.6,1.7-3.3,2.7-6.2,2.7
			C432.8,108,429.5,104.5,429.5,100.2z"/>
		<path class="st0" d="M457.7,101.7l-6-9.2h3.2l4.2,6.7l4.3-6.7h3.1l-6,9.2v6.1h-2.7V101.7z"/>
	</g>
</g>
</svg>
