<svg id="Layer_1" data-name="Layer 1" xmlns="http://www.w3.org/2000/svg" viewBox="26.37 22.12 396.6 86.63">
  <defs>
    <style>
      .cls-1, .cls-2 {
        stroke-width: 0px;
      }

      .cls-3 {
        isolation: isolate;
      }

      .cls-2 {
        fill: #fcaf17;
      }
    </style>
  </defs>
  <g class="cls-3">
    <g class="cls-3">
      <path class="cls-2" d="m181.37,99.44h3.42c2.76,0,4.66,1.97,4.66,4.54v.03c0,2.57-1.9,4.57-4.66,4.57h-3.42v-9.13Zm1.93,1.81v5.51h1.49c1.57,0,2.64-1.11,2.64-2.73v-.03c0-1.62-1.08-2.75-2.64-2.75h-1.49Z"/>
      <path class="cls-2" d="m201.28,99.44h1.93v9.13h-1.93v-9.13Z"/>
      <path class="cls-2" d="m215.04,104.04v-.03c0-2.6,1.94-4.72,4.6-4.72,1.57,0,2.54.44,3.44,1.25l-1.22,1.53c-.66-.59-1.29-.93-2.29-.93-1.4,0-2.52,1.29-2.52,2.84v.03c0,1.67,1.1,2.9,2.66,2.9.71,0,1.33-.18,1.82-.55v-1.3h-1.94v-1.74h3.81v3.97c-.9.8-2.14,1.45-3.75,1.45-2.73,0-4.61-1.98-4.61-4.7Z"/>
      <path class="cls-2" d="m235.36,99.44h1.93v9.13h-1.93v-9.13Z"/>
      <path class="cls-2" d="m251.54,101.29h-2.67v-1.85h7.27v1.85h-2.67v7.28h-1.93v-7.28Z"/>
      <path class="cls-2" d="m269.52,99.38h1.78l3.76,9.2h-2.02l-.8-2.05h-3.71l-.8,2.05h-1.97l3.76-9.2Zm2.03,5.38l-1.17-2.96-1.17,2.96h2.33Z"/>
      <path class="cls-2" d="m286.43,99.44h1.93v7.31h4.37v1.83h-6.3v-9.13Z"/>
      <path class="cls-2" d="m321,99.38h1.78l3.76,9.2h-2.02l-.8-2.05h-3.71l-.8,2.05h-1.97l3.76-9.2Zm2.03,5.38l-1.17-2.96-1.17,2.96h2.33Z"/>
      <path class="cls-2" d="m336.96,104.04v-.03c0-2.6,1.94-4.72,4.6-4.72,1.57,0,2.54.44,3.45,1.25l-1.22,1.53c-.66-.59-1.29-.93-2.29-.93-1.4,0-2.52,1.29-2.52,2.84v.03c0,1.67,1.1,2.9,2.66,2.9.71,0,1.33-.18,1.82-.55v-1.3h-1.94v-1.74h3.81v3.97c-.9.8-2.14,1.45-3.75,1.45-2.73,0-4.61-1.98-4.61-4.7Z"/>
      <path class="cls-2" d="m357.19,99.44h6.61v1.79h-4.7v1.85h4.13v1.79h-4.13v1.92h4.76v1.79h-6.68v-9.13Z"/>
      <path class="cls-2" d="m375.61,99.44h1.78l4.11,5.62v-5.62h1.9v9.13h-1.64l-4.25-5.81v5.81h-1.9v-9.13Z"/>
      <path class="cls-2" d="m395.14,104.04v-.03c0-2.6,1.88-4.72,4.57-4.72,1.64,0,2.66.57,3.46,1.41l-1.23,1.47c-.69-.64-1.35-1.03-2.24-1.03-1.48,0-2.54,1.28-2.54,2.84v.03c0,1.57,1.04,2.87,2.54,2.87,1,0,1.62-.4,2.31-1.07l1.23,1.29c-.9,1-1.89,1.63-3.6,1.63-2.58,0-4.5-2.07-4.5-4.7Z"/>
      <path class="cls-2" d="m417.14,104.97l-3.37-5.53h2.25l2.09,3.67,2.13-3.67h2.19l-3.37,5.49v3.64h-1.93v-3.6Z"/>
    </g>
  </g>
  <g>
    <path class="cls-1" d="m271.01,63.52v-.18c0-5.93-4.31-10.96-10.32-10.96s-10.15,4.94-10.15,10.78v.18c0,5.92,4.31,10.95,10.33,10.95s10.14-4.94,10.14-10.78m-37.08,0v-.18c0-13.83,11.31-25.41,26.93-25.41s26.75,11.4,26.75,25.23v.18c0,13.82-11.31,25.4-26.93,25.4s-26.75-11.4-26.75-25.23"/>
    <path class="cls-1" d="m289.22,70.9v-31.78h17.06v26.3c0,5.3,2.79,8.17,6.92,8.17s7.09-2.87,7.09-8.17v-26.3h17.06v48.57h-17.06v-6.64c-3.14,4.04-7.63,7.72-14.54,7.72-10.33,0-16.52-6.82-16.52-17.86"/>
    <path class="cls-1" d="m374.82,22.15h17.06v23.61c3.14-4.04,7.63-7.72,14.54-7.72,10.33,0,16.52,6.82,16.52,17.86v31.78h-17.06v-26.3c0-5.3-2.79-8.17-6.82-8.17s-7.18,2.87-7.18,8.17v26.3h-17.06V22.15Z"/>
    <path class="cls-1" d="m344.78,72.6v-19.75h-5.75v-13.74h5.75v-12.3h17.06v12.3h11.31v13.74h-11.31v16.43c0,3.41,1.53,4.85,4.67,4.85,2.25,0,4.4-.63,6.47-1.62v13.38c-3.05,1.7-7.09,2.78-11.85,2.78-10.24,0-16.34-4.49-16.34-16.07"/>
    <path class="cls-1" d="m209.69,48.54c-8.71-1.97-10.86-3.23-10.86-6.1v-.18c0-2.24,2.07-4.04,6.28-4.04,5.57,0,11.85,2.16,17.6,6.2l8.71-12.3c-6.82-5.48-15.17-8.35-25.85-8.35-12.99,0-21.65,6.26-23.8,15.46,1.66,3.08,2.88,6.45,3.58,10.01h4.36c1.93,0,3.55.91,4.32,2.44.77,1.52.55,3.37-.6,4.92l-2.13,2.9c3.83,1.86,8.51,3.14,13.64,4.31,8.53,1.97,10.59,3.41,10.59,6.02v.18c0,2.69-2.51,4.31-7.18,4.31-7.27,0-14.18-2.6-20.38-7.54l-9.7,11.58c7.72,6.91,18.31,10.41,29.45,10.41,15.26,0,25.41-7.63,25.41-20.47v-.18c0-11.76-8.98-16.43-23.43-19.57"/>
    <path class="cls-2" d="m108.22,67.42c0,4.49-3.17,7.93-8.55,7.93s-8.73-3.53-8.73-8.02v-.18c0-4.41,3.18-7.84,8.55-7.84s8.72,3.53,8.72,7.93v.18h0Zm81.48-14.78h-7.28c-1.8-16.26-15.58-28.91-32.32-28.91s-29.81,12-32.15,27.65c-3.65-2.83-8.4-4.32-13.44-4.32-6.08,0-10.05,2.29-13.31,4.76.79-7.75,4.41-13.13,11.63-13.13,4.83,0,8.31,1.78,12.01,4.5,1.04-2.78,2.42-5.45,4.19-8.01,1.07-1.56,2.24-2.99,3.49-4.32-5.72-4.13-11.61-6.37-19.96-6.37-19.3,0-28.64,14.63-28.64,33.84v.37c-2.83-4.39-7.79-6.88-13.45-8.13l14.72-12.6v-12.25H30.59v13.84h23.62l-14.19,12.78,2.47,8.9h7.23c6.43,0,10.05,2.38,10.05,6.34v.18c0,3.79-3.08,6.26-7.93,6.26-5.64,0-10.31-2.56-14.72-7.05l-10.75,10.75c5.99,6.61,14.37,10.93,26.26,10.93s21.22-6.14,23.34-16.05c1.32,3.79,3.22,6.7,5.53,9,4.41,4.41,10.13,7.05,18.86,7.05,10.52,0,19.54-5.1,23-13.91,5.87,8.47,15.66,14.02,26.74,14.02s19.23-5.97,22.92-10.31l-8.35-9.44c-3.47,3.35-7.81,6.53-14.57,6.53-10.66,0-19.3-8.64-19.3-19.3s8.64-19.3,19.3-19.3c9.42,0,17.27,6.76,18.96,15.69h-7.75c-1.33,0-1.77.87-.98,1.94l13.74,18.67c.79,1.06,2.07,1.06,2.86,0l13.74-18.67c.79-1.06.35-1.94-.98-1.94"/>
  </g>
</svg>