<svg id="Layer_1" data-name="Layer 1" xmlns="http://www.w3.org/2000/svg" viewBox="26.37 33.18 396.6 66.63">
  <defs>
    <style>
      .cls-1, .cls-2 {
        stroke-width: 0px;
      }

      .cls-2 {
        fill: #fcaf17;
      }
    </style>
  </defs>
  <g>
    <path class="cls-1" d="m271.01,74.56v-.18c0-5.93-4.31-10.96-10.32-10.96s-10.15,4.94-10.15,10.78v.18c0,5.92,4.31,10.95,10.33,10.95s10.14-4.94,10.14-10.78m-37.08,0v-.18c0-13.83,11.31-25.41,26.93-25.41s26.75,11.4,26.75,25.23v.18c0,13.82-11.31,25.4-26.93,25.4s-26.75-11.4-26.75-25.23"/>
    <path class="cls-1" d="m289.22,81.94v-31.78h17.06v26.3c0,5.3,2.79,8.17,6.92,8.17s7.09-2.87,7.09-8.17v-26.3h17.06v48.57h-17.06v-6.64c-3.14,4.04-7.63,7.72-14.54,7.72-10.33,0-16.52-6.82-16.52-17.86"/>
    <path class="cls-1" d="m374.82,33.19h17.06v23.61c3.14-4.04,7.63-7.72,14.54-7.72,10.33,0,16.52,6.82,16.52,17.86v31.78h-17.06v-26.3c0-5.3-2.79-8.17-6.82-8.17s-7.18,2.87-7.18,8.17v26.3h-17.06V33.19Z"/>
    <path class="cls-1" d="m209.69,59.58c-8.71-1.97-10.86-3.23-10.86-6.1v-.18c0-2.24,2.07-4.04,6.28-4.04,5.57,0,11.85,2.16,17.6,6.2l8.71-12.3c-6.82-5.48-15.17-8.35-25.85-8.35-12.99,0-21.65,6.26-23.8,15.46,1.66,3.08,2.88,6.45,3.58,10.01h4.36c1.93,0,3.55.91,4.32,2.44.77,1.52.55,3.37-.6,4.92l-2.13,2.9c3.83,1.86,8.51,3.14,13.64,4.31,8.53,1.97,10.59,3.41,10.59,6.02v.18c0,2.69-2.51,4.31-7.18,4.31-7.27,0-14.18-2.6-20.38-7.54l-9.7,11.58c7.72,6.91,18.31,10.41,29.45,10.41,15.26,0,25.41-7.63,25.41-20.47v-.18c0-11.76-8.98-16.43-23.43-19.57"/>
    <path class="cls-2" d="m108.22,78.46c0,4.49-3.17,7.93-8.55,7.93s-8.73-3.53-8.73-8.02v-.18c0-4.41,3.18-7.84,8.55-7.84s8.72,3.53,8.72,7.93v.18h0Zm81.48-14.78h-7.28c-1.8-16.26-15.58-28.91-32.32-28.91s-29.81,12-32.15,27.65c-3.65-2.83-8.4-4.32-13.44-4.32-6.08,0-10.05,2.29-13.31,4.76.79-7.75,4.41-13.13,11.63-13.13,4.83,0,8.31,1.78,12.01,4.5,1.04-2.78,2.42-5.45,4.19-8.01,1.07-1.56,2.24-2.99,3.49-4.32-5.72-4.13-11.61-6.37-19.96-6.37-19.3,0-28.64,14.63-28.64,33.84v.37c-2.83-4.39-7.79-6.88-13.45-8.13l14.72-12.6v-12.25H30.59v13.84h23.62l-14.19,12.78,2.47,8.9h7.23c6.43,0,10.05,2.38,10.05,6.34v.18c0,3.79-3.08,6.26-7.93,6.26-5.64,0-10.31-2.56-14.72-7.05l-10.75,10.75c5.99,6.61,14.37,10.93,26.26,10.93s21.22-6.14,23.34-16.05c1.32,3.79,3.22,6.7,5.53,9,4.41,4.41,10.13,7.05,18.86,7.05,10.52,0,19.54-5.1,23-13.91,5.87,8.47,15.66,14.02,26.74,14.02s19.23-5.97,22.92-10.31l-8.35-9.44c-3.47,3.35-7.81,6.53-14.57,6.53-10.66,0-19.3-8.64-19.3-19.3s8.64-19.3,19.3-19.3c9.42,0,17.27,6.76,18.96,15.69h-7.75c-1.33,0-1.77.87-.98,1.94l13.74,18.67c.79,1.06,2.07,1.06,2.86,0l13.74-18.67c.79-1.06.35-1.94-.98-1.94"/>
  </g>
  <path class="cls-1" d="m344.78,83.64v-19.75h-5.75v-13.74h5.75v-12.3h17.06v12.3h11.31v13.74h-11.31v16.43c0,3.41,1.53,4.85,4.67,4.85,2.25,0,4.4-.63,6.47-1.62v13.38c-3.05,1.7-7.09,2.78-11.85,2.78-10.24,0-16.34-4.49-16.34-16.07"/>
</svg>