<svg xmlns="http://www.w3.org/2000/svg" viewBox="0 0 363.7 65.6"><defs><style>.a{fill:#fff;}.b{fill:#00b4ff;}</style></defs><title>activate-logo-tagline-negative</title><path class="a" d="M176.1,38.1c-4.3,0-7.2-3.5-7.2-8.2h0c0-4.4,3-8.1,7.1-8.1s4.9,1.5,6.7,3.8l8.5-6.4c-3.1-4.8-8-8-15.4-8-11.4,0-19.2,8.6-19.2,18.8h0a18.5,18.5,0,0,0,18.8,18.7c7.9,0,12.7-3.3,16-8.3L183,34.3C181,36.7,179.1,38.1,176.1,38.1Z"/><path class="a" d="M204.9,2.7H192.3v34c0,8.6,4.5,11.9,12.1,11.9a18,18,0,0,0,8.8-2.1V36.6a11.1,11.1,0,0,1-4.8,1.2c-2.3,0-3.5-1.1-3.5-3.6V22h8.4V11.8h-8.4Z"/><rect class="a" x="215" y="11.8" width="12.6" height="36.02"/><rect class="a" x="215" y="2.7" width="12.6" height="5.83"/><path class="a" d="M319,2.7H306.4v34c0,8.6,4.5,11.9,12.1,11.9a18,18,0,0,0,8.8-2.1V36.6a11.1,11.1,0,0,1-4.8,1.2c-2.3,0-3.5-1.1-3.5-3.6V22h8.4V11.8H319Z"/><path class="a" d="M363.7,30.7c0-10.6-5.7-19.7-18.1-19.7-10.7,0-18.2,8.3-18.2,18.8h0c0,11.1,8,18.7,19.3,18.7a18.8,18.8,0,0,0,15.6-7.3l-7-5.8c-2.6,2.5-4.9,3.7-8,3.7s-6.8-2-7.8-5.9h24.1C363.7,32.5,363.7,31.5,363.7,30.7Zm-24.4-3.9c.7-4,2.9-6.5,6.3-6.5s5.9,2.5,6.3,6.5Z"/><polygon class="a" points="255.7 11.8 248.8 32.9 241.8 11.8 228.5 11.8 242.9 48.1 254.4 48.1 268.8 11.8 255.7 11.8"/><path class="a" d="M292.1,16.2a13.5,13.5,0,0,0-11-5.2c-8.5,0-15.9,7.1-15.9,18.8h0c0,11.5,7.4,18.6,16,18.6,5.4,0,8.4-2.6,10.9-5.6v4.8h12.6v-36H292.1Zm.3,13.6c0,4.8-3.3,8.2-7.4,8.2s-7.4-3.4-7.4-8.2h0c0-4.8,3.3-8.2,7.4-8.2s7.4,3.5,7.4,8.2Z"/><path class="a" d="M141.2.9H128.8l-7.5,17.9h1.9a3.8,3.8,0,0,1,3.2,6.2L116,39.1a4.3,4.3,0,0,1-3.5,1.8h-.5L109,47.9h13.5l3.3-8.4h18l3.3,8.4h13.9ZM129.6,29.4l5.3-13.2,5.2,13.2Z"/><path class="b" d="M123.2,21.8h-5.5a24.5,24.5,0,0,0-48.6-.9,16.5,16.5,0,0,0-10.1-3.3,15.7,15.7,0,0,0-10,3.6c.6-5.8,3.3-9.9,8.8-9.9,3.6,0,6.3,1.3,9.1,3.4a27.6,27.6,0,0,1,3.2-6,28.3,28.3,0,0,1,2.6-3.3A23.9,23.9,0,0,0,57.5.6c-14.6,0-21.6,11-21.6,25.5h0c-2.1-3.3-5.9-5.2-10.1-6.1l11.1-9.5V1.5H3.2V11.9H21L10.3,21.6l1.9,6.7h5.5c4.9,0,7.6,1.8,7.6,4.8h0c0,2.9-2.3,4.7-6,4.7S11.4,36,8.1,32.6L0,40.7c4.5,5,10.8,8.2,19.8,8.2s16-4.6,17.6-12.1a17.6,17.6,0,0,0,4.2,6.8C44.9,47,49.2,49,55.8,49s14.7-3.8,17.3-10.5A24.5,24.5,0,0,0,93.3,49a22.8,22.8,0,0,0,17.3-7.8l-6.3-7.1c-2.6,2.5-5.9,4.9-11,4.9a14.6,14.6,0,1,1,14.3-17.3h-5.8c-1,0-1.3.7-.7,1.5l10.4,14.1a1.3,1.3,0,0,0,2.2,0l10.4-14.1C124.5,22.5,124.2,21.8,123.2,21.8ZM61.7,32.9c0,3.4-2.4,6-6.4,6s-6.6-2.7-6.6-6h0c0-3.3,2.4-5.9,6.4-5.9s6.6,2.7,6.6,6Z"/><path class="b" d="M109.1,57h3.1a4.2,4.2,0,0,1,4.5,4.2h0a4.2,4.2,0,0,1-4.5,4.2h-3.1Zm1.5,1.3v5.7h1.7a2.7,2.7,0,0,0,2.9-2.8h0a2.8,2.8,0,0,0-2.9-2.9Z"/><path class="b" d="M120.5,57H122v8.4h-1.5Z"/><path class="b" d="M125.8,61.2h0a4.3,4.3,0,0,1,4.3-4.3,4.5,4.5,0,0,1,3.2,1.1l-.9,1.1a3.3,3.3,0,0,0-2.4-.9,2.8,2.8,0,0,0-2.7,3h0a2.8,2.8,0,0,0,2.9,3,3.4,3.4,0,0,0,2-.6V62H130V60.7h3.6v3.5a5.4,5.4,0,0,1-3.5,1.3A4.2,4.2,0,0,1,125.8,61.2Z"/><path class="b" d="M137.6,57H139v8.4h-1.5Z"/><path class="b" d="M145.3,58.4h-2.7V57h6.8v1.4h-2.7v7h-1.5Z"/><path class="b" d="M154.8,57h1.4l3.7,8.5h-1.6l-.9-2h-4l-.9,2h-1.5Zm2.1,5.1-1.5-3.4L154,62.1Z"/><path class="b" d="M163.2,57h1.5v7.1h4.4v1.3h-5.9Z"/><path class="b" d="M178.1,57h1.6l2.6,4,2.6-4h1.6v8.4h-1.5v-6l-2.7,4h0l-2.6-3.9v6h-1.5Z"/><path class="b" d="M193.5,57h1.4l3.7,8.5H197l-.9-2h-4l-.9,2h-1.5Zm2.1,5.1-1.5-3.4-1.4,3.4Z"/><path class="b" d="M201.9,57h3.7a3.4,3.4,0,0,1,2.4.8,2.5,2.5,0,0,1,.7,1.8h0a2.5,2.5,0,0,1-2,2.5l2.3,3.2h-1.8l-2.1-2.9h-1.8v2.9h-1.5Zm3.6,4.2c1.1,0,1.7-.6,1.7-1.4h0c0-.9-.6-1.4-1.7-1.4h-2.1v2.8Z"/><path class="b" d="M212.5,57H214v4.2l4-4.2h1.8l-3.5,3.6,3.7,4.8h-1.8l-2.9-3.8L214,63v2.4h-1.5Z"/><path class="b" d="M223.2,57h6.2v1.3h-4.7v2.2h4.2v1.3h-4.2v2.3h4.8v1.3h-6.3Z"/><path class="b" d="M235.2,58.4h-2.7V57h6.8v1.4h-2.7v7h-1.5Z"/><path class="b" d="M242.9,57h1.5v8.4h-1.5Z"/><path class="b" d="M248.6,57h1.4l4.5,5.8V57h1.5v8.4h-1.2l-4.6-6v6h-1.5Z"/><path class="b" d="M259.6,61.2h0a4.3,4.3,0,0,1,4.3-4.3,4.5,4.5,0,0,1,3.2,1.1l-.9,1.1a3.3,3.3,0,0,0-2.4-.9,2.8,2.8,0,0,0-2.7,3h0a2.8,2.8,0,0,0,2.9,3,3.4,3.4,0,0,0,2-.6V62h-2.1V60.7h3.6v3.5a5.4,5.4,0,0,1-3.5,1.3A4.2,4.2,0,0,1,259.6,61.2Z"/><path class="b" d="M276.3,64.2l.9-1.1a3.9,3.9,0,0,0,2.7,1.1c.9,0,1.5-.4,1.5-1.1h0c0-.6-.3-.9-1.9-1.3s-2.8-1-2.8-2.5h0c0-1.4,1.2-2.4,2.9-2.4a4.7,4.7,0,0,1,3,1.1l-.8,1.1a3.8,3.8,0,0,0-2.3-.9c-.9,0-1.4.4-1.4,1h0c0,.6.4.9,2,1.3s2.7,1.1,2.7,2.5h0c0,1.6-1.2,2.5-3,2.5A5.2,5.2,0,0,1,276.3,64.2Z"/><path class="b" d="M286.1,61.2h0a4.4,4.4,0,0,1,8.8,0h0a4.4,4.4,0,0,1-8.8,0Zm7.2,0h0a2.9,2.9,0,0,0-2.9-3,2.8,2.8,0,0,0-2.8,3h0a2.9,2.9,0,0,0,2.9,3A2.8,2.8,0,0,0,293.3,61.2Z"/><path class="b" d="M298.6,57h1.5v7.1h4.4v1.3h-5.9Z"/><path class="b" d="M307.6,61.8V57h1.5v4.8c0,1.6.8,2.4,2.1,2.4s2.1-.8,2.1-2.3V57h1.5v4.8c0,2.5-1.4,3.8-3.6,3.8S307.6,64.3,307.6,61.8Z"/><path class="b" d="M320.8,58.4h-2.7V57h6.8v1.4h-2.7v7h-1.5Z"/><path class="b" d="M328.5,57H330v8.4h-1.5Z"/><path class="b" d="M333.8,61.2h0a4.4,4.4,0,0,1,8.8,0h0a4.4,4.4,0,0,1-8.8,0Zm7.2,0h0a2.9,2.9,0,0,0-2.9-3,2.8,2.8,0,0,0-2.8,3h0a2.9,2.9,0,0,0,2.9,3A2.8,2.8,0,0,0,341,61.2Z"/><path class="b" d="M346.3,57h1.4l4.5,5.8V57h1.5v8.4h-1.2l-4.6-6v6h-1.5Z"/><path class="b" d="M357.2,64.2l.9-1.1a3.9,3.9,0,0,0,2.7,1.1c.9,0,1.5-.4,1.5-1.1h0c0-.6-.3-.9-1.9-1.3s-2.8-1-2.8-2.5h0c0-1.4,1.2-2.4,2.9-2.4a4.7,4.7,0,0,1,3,1.1l-.8,1.1a3.8,3.8,0,0,0-2.3-.9c-.9,0-1.4.4-1.4,1h0c0,.6.4.9,2,1.3s2.7,1.1,2.7,2.5h0c0,1.6-1.2,2.5-3,2.5A5.2,5.2,0,0,1,357.2,64.2Z"/></svg>